<?xml version="1.0" encoding="utf-8"?>
<!-- Generator: Adobe Illustrator 23.0.1, SVG Export Plug-In . SVG Version: 6.00 Build 0)  -->
<svg version="1.1" id="Слой_1" xmlns="http://www.w3.org/2000/svg" xmlns:xlink="http://www.w3.org/1999/xlink" x="0px" y="0px"
	 viewBox="0 0 1440 900" style="enable-background:new 0 0 1440 900;" xml:space="preserve">
<style type="text/css">
	.st0{fill:url(#SVGID_1_);}
	.st1{fill:url(#SVGID_2_);}
	.st2{fill:#FFFFFF;}
	.st3{font-family:'Montserrat-Bold';}
	.st4{font-size:137.3084px;}
</style>
<g>
	<radialGradient id="SVGID_1_" cx="86.9855" cy="196.5507" r="345.2866" gradientUnits="userSpaceOnUse">
		<stop  offset="0" style="stop-color:#FFFFFF"/>
		<stop  offset="0.466" style="stop-color:#FFCA90"/>
		<stop  offset="0.8332" style="stop-color:#FFA23E"/>
		<stop  offset="1" style="stop-color:#FF931E"/>
	</radialGradient>
	<path class="st0" d="M81.52,518.29l22.62-47.85c24.26,16.86,60.45,28.63,95,28.63c39.48,0,55.52-12.55,55.52-29.41
		c0-51.38-167.38-16.08-167.38-118.05c0-46.67,39.48-85.5,121.32-85.5c36.19,0,73.2,8.24,99.94,24.32l-20.56,48.24
		c-26.73-14.51-54.29-21.57-79.78-21.57c-39.48,0-54.7,14.12-54.7,31.38c0,50.59,167.38,15.69,167.38,116.48
		c0,45.89-39.89,85.1-122.14,85.1C153.08,550.05,107.02,537.11,81.52,518.29z"/>
	<radialGradient id="SVGID_2_" cx="86.9855" cy="196.5507" r="345.2866" gradientUnits="userSpaceOnUse">
		<stop  offset="0" style="stop-color:#FFFFFF"/>
		<stop  offset="0.466" style="stop-color:#FFCA90"/>
		<stop  offset="0.8332" style="stop-color:#FFA23E"/>
		<stop  offset="1" style="stop-color:#FF931E"/>
	</radialGradient>
	<path class="st1" d="M630.55,470.44c0,47.45-39.48,74.91-115.15,74.91H366.52V270.82h140.65c71.97,0,108.98,28.63,108.98,71.38
		c0,27.45-14.81,48.63-38.25,60.4C609.98,412.4,630.55,435.93,630.55,470.44z M432.73,318.67v64.71h66.21
		c32.49,0,50.17-10.98,50.17-32.55c0-21.57-17.68-32.16-50.17-32.16H432.73z M563.51,463.77c0-23.14-18.51-34.12-53.05-34.12h-77.73
		v67.85h77.73C545,497.5,563.51,487.3,563.51,463.77z"/>
</g>
<text transform="matrix(0.8964 0 0 1 652.0068 374.7046)"><tspan x="0" y="0" class="st2 st3 st4">SCORING</tspan><tspan x="0" y="164.77" class="st2 st3 st4">BANK </tspan></text>
</svg>
